<?xml version="1.0" encoding="UTF-8" standalone="no"?>
<!DOCTYPE svg PUBLIC "-//W3C//DTD SVG 1.1//EN" "http://www.w3.org/Graphics/SVG/1.1/DTD/svg11.dtd">
<svg width="100%" height="100%" viewBox="0 0 1024 1024" version="1.1" xmlns="http://www.w3.org/2000/svg" xmlns:xlink="http://www.w3.org/1999/xlink" xml:space="preserve" xmlns:serif="http://www.serif.com/" style="fill-rule:evenodd;clip-rule:evenodd;stroke-linejoin:round;stroke-miterlimit:2;">
    <g transform="matrix(0.177534,-0,0,-0.177534,-369.295652,1488.354207)">
        <path d="M7235,7896C7051,7851 6912,7712 6870,7531C6853,7459 6862,7330 6889,7260C6900,7230 6906,7203 6902,7200C6842,7149 6192,6577 6085,6480C5971,6377 5977,6378 5888,6443C5722,6562 5493,6656 5298,6686C5148,6709 4909,6700 4778,6666C4635,6630 4470,6556 4351,6476C4185,6365 4016,6187 3938,6039L3913,5993L3829,6022C3783,6038 3601,6101 3425,6163L3105,6275L3093,6355C3044,6655 2748,6858 2466,6785C2270,6734 2131,6586 2098,6392C2055,6139 2227,5885 2481,5825C2661,5783 2839,5837 2972,5974C3003,6006 3033,6029 3038,6026C3060,6013 4097,5650 4114,5650C4122,5650 4141,5686 4159,5736C4210,5877 4272,5971 4390,6090C4536,6236 4669,6311 4865,6356C4987,6385 5226,6382 5340,6352C5626,6274 5855,6095 5994,5839C6134,5582 6148,5249 6028,4989L5998,4922L6106,4795C6231,4648 6215,4648 6293,4804C6441,5104 6466,5474 6359,5795C6325,5898 6249,6045 6183,6138C6144,6191 6139,6203 6151,6214C6159,6221 6224,6278 6295,6341C6367,6403 6533,6551 6665,6669C6797,6787 6940,6915 6983,6953L7060,7022L7128,6987C7441,6824 7801,7023 7835,7377C7843,7455 7824,7553 7785,7638C7754,7706 7643,7818 7571,7854C7472,7905 7338,7921 7235,7896Z" style="fill:rgb(0,128,136);fill-rule:nonzero;"/>
    </g>
    <g transform="matrix(0.177534,-0,0,-0.177534,-369.295652,1488.354207)">
        <path d="M4940,6106C4712,6057 4514,5907 4417,5707C4222,5308 4422,4817 4838,4669C5049,4595 5285,4607 5471,4700C5515,4723 5528,4726 5536,4715C5541,4708 5646,4582 5770,4434C5894,4287 6058,4090 6136,3997L6277,3828L6252,3767C6222,3693 6212,3570 6229,3488C6274,3271 6485,3100 6708,3100C6934,3100 7138,3257 7194,3476C7214,3552 7214,3615 7196,3701C7176,3792 7141,3858 7070,3933C6920,4094 6683,4136 6501,4034C6477,4021 6454,4010 6450,4010C6444,4010 6394,4067 6136,4374C6103,4413 5994,4543 5893,4662C5792,4782 5710,4882 5710,4886C5710,4890 5730,4927 5754,4969C5778,5011 5811,5083 5826,5130C5850,5205 5853,5231 5854,5350C5855,5507 5841,5572 5780,5695C5688,5883 5497,6040 5295,6095C5213,6117 5022,6123 4940,6106Z" style="fill:rgb(0,128,136);fill-rule:nonzero;"/>
    </g>
    <g transform="matrix(0.177534,-0,0,-0.177534,-369.295652,1488.354207)">
        <path d="M3782,5563C3767,5526 3775,5218 3793,5133C3871,4767 4071,4476 4380,4283C4613,4138 4831,4076 5110,4076C5273,4076 5378,4091 5501,4131C5559,4150 5699,4207 5709,4216C5712,4219 5657,4289 5535,4437L5515,4461L5455,4440C5297,4385 5077,4370 4910,4403C4530,4479 4226,4760 4131,5124C4111,5201 4092,5364 4094,5444L4095,5483L3950,5532C3871,5558 3802,5580 3797,5580C3793,5580 3786,5572 3782,5563Z" style="fill:rgb(0,128,136);fill-rule:nonzero;"/>
    </g>
</svg>
